<?xml version="1.0" encoding="utf-8"?>
<!-- Generator: Adobe Illustrator 21.0.2, SVG Export Plug-In . SVG Version: 6.00 Build 0)  -->
<svg version="1.1" id="Layer_1" xmlns="http://www.w3.org/2000/svg" xmlns:xlink="http://www.w3.org/1999/xlink" x="0px" y="0px"
	 viewBox="0 0 512 512" style="enable-background:new 0 0 512 512;" xml:space="preserve">
<style type="text/css">
	.st0{fill:#FFB606;}
</style>
<g>
	<path class="st0" d="M256,9.8c136.1-0.1,246.9,111.1,246.3,247.5C501.7,393.5,389,503,254,502.2C121.3,501.3,6,391.1,9.8,247.5
		C13.1,119.9,120.3,9.7,256,9.8z M438.3,258.3c0.3-101.9-80.5-184.5-181.5-184.6C153.4,73.5,75.3,156.1,74,250.6
		c-1.5,104.7,78.8,187,181.1,187.6C354.6,438.8,437.9,356.9,438.3,258.3z"/>
	<path class="st0" d="M408.6,214.6c-0.8,3.3-3.6,4.2-5.7,5.7c-42,29.6-84.1,59.1-126.2,88.6c-24.8,17.4-49.6,34.7-74.2,52.2
		c-4.4,3.1-6.7,3-10-1.4c-26.3-34.1-52.7-68.1-79.3-102c-3.1-4-3.1-6.3,1.1-9.4c13.3-10.1,26.6-20.4,39.5-30.9
		c4.4-3.6,6.8-3.6,10.4,1.2c13.1,17.5,27,34.4,40,52.1c4.5,6.2,7.5,5.8,13.2,1.7c49.4-35,99-69.6,148.4-104.5
		c5.3-3.7,8-4.1,11.9,1.8c8.9,13.6,18.5,26.7,27.8,40C406.7,211.4,407.6,213.1,408.6,214.6z"/>
</g>
</svg>
