<?xml version="1.0" encoding="utf-8"?>
<!-- Generator: Adobe Illustrator 21.0.2, SVG Export Plug-In . SVG Version: 6.00 Build 0)  -->
<svg version="1.1" id="Layer_1" xmlns="http://www.w3.org/2000/svg" xmlns:xlink="http://www.w3.org/1999/xlink" x="0px" y="0px"
	 viewBox="0 0 512 512" style="enable-background:new 0 0 512 512;" xml:space="preserve">
<style type="text/css">
	.st0{fill:#FFB606;}
</style>
<g>
	<path class="st0" d="M264.7,5.1c5,0.7,10,1.2,15,2c53.8,8.3,96.5,34.9,124.4,81.4c39.7,66.2,36.4,132.4-6,196.8
		c-0.8,1.2-1.7,2.4-2.5,3.6c-0.2,0.3-0.3,0.6-0.7,1.5c4.7,2.6,9.5,5.3,14.3,8c7.1,4,14.3,7.8,21.4,11.9c2.3,1.3,3.8,1.4,6.1-0.2
		c26.3-18.4,59.9-6.5,68.7,24.3c4.9,17-2.6,36.8-17.8,47.3c-14.8,10.3-36.6,9.9-50.6-0.8c-13.2-10.1-19.2-23.5-18.1-40.1
		c0.1-1.4-0.7-3.7-1.8-4.3c-14.2-8.1-28.4-15.9-41.9-23.3c-13.2,9.4-25.8,18.4-38.7,27.6c8.8,15.4,17.9,31.4,27.2,47.3
		c0.6,1,2.7,1.7,4,1.6c33.4-2.2,56.9,27.1,46.1,58.5c-6.1,17.7-19.5,27.6-38.1,29c-17.4,1.3-31.4-5.8-40.4-20.8
		c-9.9-16.4-9-32.9,1.9-48.7c1.7-2.4,1.6-4.1,0.2-6.5c-8.9-15.4-17.6-30.9-26.6-46.3c-0.8-1.3-3-3-4.1-2.7
		c-12.1,2.4-24.1,5.2-36.9,8.1c0,3.3,0,7.3,0,11.3c0,14.9,0.1,29.7-0.1,44.6c0,3.5,0.8,5.4,4.2,7c18.2,8.3,27.8,27.7,24.3,48.3
		c-3.1,18.5-19.1,32.7-39.5,35.2c-17.9,2.1-37.1-9.4-44.3-26.8c-9.1-21.8,0.8-47,22.2-57.1c1.6-0.7,3.6-2.7,3.6-4.1
		c0.2-19.6,0.2-39.2,0.2-58.9c-8.7-1.6-17.2-3.2-25.6-4.8c-0.8-0.1-1.6-0.3-2.4-0.5c-11.3-2.8-11.3-2.8-17.1,7.2
		c-7.5,13.2-15,26.4-22.6,39.5c-1.4,2.4-1.4,4.1,0.3,6.5c11.5,16.3,11.3,37.3-0.3,52c-12.9,16.3-32.9,21.9-51.7,14.6
		c-19.5-7.6-31.4-30.4-26.5-50.8c5.1-21.2,25.2-36,46.4-33.9c3.2,0.3,4.9-0.3,6.6-3.2c8.1-14.6,16.4-29,24.7-43.4c0.5-1,1-2,1.2-2.4
		c-12.7-9.1-25.2-18-38.3-27.4c-1.6,0.9-4.1,2.3-6.6,3.7c-10.8,6.2-21.5,12.4-32.3,18.5c-2.1,1.2-3.4,2.3-3.2,5.2
		c2.4,33.3-27.2,56.6-58.7,45.8c-15.5-5.3-24.7-17-28.2-33c-0.2-1.1-0.6-2.2-0.9-3.3c0-3.3,0-6.5,0-9.8c0.3-1.1,0.7-2.2,0.9-3.3
		c5.1-27.7,36.4-44.8,60.8-31.6c10.3,5.6,17.2,4.7,25.3-1.6c1.5-1.2,3.4-2,5.1-2.9c6-3.5,12.1-6.9,18.3-10.6c-2.1-3-4.1-5.4-5.6-8.1
		c-5.8-10.2-12.5-20-16.9-30.8c-22.8-56.3-19.5-111.3,12.7-163.1c28.7-46.1,70.8-73,124.5-81.3c5-0.8,10-1.3,15-2
		C251.7,5.1,258.2,5.1,264.7,5.1z M254.9,34.5c-80.7,0-146.8,66-147,146.8c-0.3,81.8,66.2,149.2,147,149.2
		c80.9,0,147.3-67.4,147-149.2C401.7,100.4,335.6,34.5,254.9,34.5z M63.7,345.2c0-8-6.7-14.7-14.7-14.6c-8,0-14.7,6.7-14.6,14.7
		c0,8,6.7,14.7,14.7,14.7C57.1,359.9,63.8,353.2,63.7,345.2z M462.9,330.6c-8-0.1-14.7,6.6-14.8,14.5c-0.1,8,6.5,14.7,14.5,14.8
		c8,0.1,14.7-6.5,14.8-14.5C477.5,337.4,470.9,330.6,462.9,330.6z M152,433.6c0.1-8-6.5-14.7-14.5-14.8c-8-0.1-14.7,6.5-14.8,14.5
		c-0.1,8,6.5,14.7,14.5,14.8C145.2,448.2,151.9,441.6,152,433.6z M372.4,448.1c8,0.1,14.7-6.5,14.8-14.5c0.1-8-6.5-14.7-14.5-14.8
		c-7.9-0.1-14.7,6.6-14.8,14.5C357.8,441.3,364.4,448,372.4,448.1z M269.6,463c0.1-8-6.6-14.7-14.6-14.8
		c-7.9-0.1-14.7,6.6-14.8,14.6s6.6,14.7,14.6,14.8C262.8,477.6,269.5,471,269.6,463z"/>
	<path class="st0" d="M208.8,159.1c-10.9-14.9-15-31.1-11.3-48.9c2.9-13.6,9.9-24.8,20.8-33.4c21.7-17.4,52.3-17.3,73.7,0.3
		c12.3,10.1,19.6,23.1,21.4,38.9c1.7,15.7-2.6,30-11.7,42.4c6.6,5.1,13.3,9.4,19.1,14.8c15.1,14.1,22,32,22.4,52.5
		c0.2,9.5,0.1,18.9,0,28.4c-0.1,9.6-6.1,15.6-15.7,15.6c-48.3,0-96.7,0-145,0c-9.6,0-15.9-6-15.7-15.6c0.4-15.1-0.2-30.5,2.4-45.3
		c3.6-20.4,16.1-35.7,33.9-46.4C204.8,161.4,206.6,160.4,208.8,159.1z M313.5,240.2c0-6.2,0.5-11.9-0.1-17.5
		c-2.3-23-17.8-38.8-40.9-40.7c-11.7-1-23.5-0.4-35.2-0.1c-8.7,0.3-16.5,3.4-23.5,8.6c-16.8,12.7-19,30.4-17.4,49.7
		C235.5,240.2,274.3,240.2,313.5,240.2z M254.7,152.1c15.9,0.2,29.4-13.2,29.6-29.2c0.1-16-13.1-29.4-29.1-29.6
		c-15.9-0.1-29.4,13.1-29.6,29.2C225.4,138.4,238.7,151.9,254.7,152.1z"/>
</g>
</svg>
