<?xml version="1.0" encoding="utf-8"?>
<!-- Generator: Adobe Illustrator 21.0.2, SVG Export Plug-In . SVG Version: 6.00 Build 0)  -->
<svg version="1.1" id="Layer_1" xmlns="http://www.w3.org/2000/svg" xmlns:xlink="http://www.w3.org/1999/xlink" x="0px" y="0px"
	 viewBox="0 0 512 512" style="enable-background:new 0 0 512 512;" xml:space="preserve">
<style type="text/css">
	.st0{fill:#FFFFFF;}
</style>
<g>
	<path class="st0" d="M257.7,15.1c126.4,0.4,226.2,93.1,236.4,218.1c10.2,124.3-81.4,236.4-204.8,251.1
		c-46.9,5.6-91.3-1.8-133.5-22.3c-7.4-3.6-13.8-3.8-21.6-1.2c-35.1,11.6-70.4,22.6-105.6,33.7c-3.4,1.1-7.5,4.4-10.5,1.2
		c-2.8-3.1,0.6-7.1,1.7-10.5c10.8-33.1,21.6-66.3,33.2-99.2c3.4-9.5,2.8-17-1.9-26C-16.6,228.5,48.2,71.4,188.8,25.7
		C211.7,18.2,235.3,14.3,257.7,15.1z M259.2,54.8c-10.1-1-22.3,0.6-34.2,3c-10.7,2.2-21.4,4.7-31.6,8.5
		C74.8,111,28.1,247.3,94.7,355.2c5,8.1,5.7,14.7,2.5,23.4c-5.8,15.3-10.6,31-15.8,46.5c-1,3.1-3.3,6.9-1.1,9.5
		c3.1,3.6,7,0.1,10.4-1c17.2-5.4,34.5-10.8,51.5-16.8c6.5-2.3,11.5-1.9,17.6,1.7c38.9,23,80.7,31.3,125.9,25.8
		c100.6-12.3,186.9-108,167.2-227.3C437.3,123.7,356.5,56.4,259.2,54.8z"/>
	<path class="st0" d="M315.2,367.5c-26.3-4.1-57.2-17.9-84.9-38.2c-34.6-25.3-59.5-59.3-78.6-97.2c-15.8-31.3-11.2-63.6,9-85.9
		c9.8-10.9,21.6-11.8,34.5-10.1c5.2,0.7,7.8,4.5,9.6,9c5.9,15.3,11.7,30.6,17.7,45.8c4,10.2-2.2,16.8-7.9,23.6
		c-13.8,16.6-13.8,16.5-2,34.2c16.6,25.1,38.5,44.2,65.2,58c9.3,4.8,16.6,4.8,23.1-4c1.5-2,3.4-3.7,5.1-5.6
		c16.8-18.7,16.8-18.7,39.5-6.6c5.9,3.2,11.8,6.4,17.7,9.6c21,11.2,24.1,31.3,6.8,48.9C357.5,361.9,341.8,368.5,315.2,367.5z"/>
</g>
</svg>
