<?xml version="1.0" encoding="utf-8"?>
<!-- Generator: Adobe Illustrator 21.0.2, SVG Export Plug-In . SVG Version: 6.00 Build 0)  -->
<svg version="1.1" id="Layer_1" xmlns="http://www.w3.org/2000/svg" xmlns:xlink="http://www.w3.org/1999/xlink" x="0px" y="0px"
	 viewBox="0 0 512 512" style="enable-background:new 0 0 512 512;" xml:space="preserve">
<style type="text/css">
	.st0{fill:#FFB606;}
</style>
<g>
	<path class="st0" d="M285.1,329.1c6.9,6.5,13.9,13,20.8,19.4c24.4,22.8,28.1,32.8,16.6,45.2c-11.7,12.6-23,9.3-46.9-15.2
		c-6-6.2-10.6-13.8-15.8-20.8c-2,1.9-4,3.9-6,5.8c7.5,8.6,16.8,16.3,22.1,26.1c4.1,7.8,6.5,19.4,3.6,27c-2.1,5.4-15.9,11.4-21.5,9.3
		c-8.7-3.4-20.4-12.9-21.1-20.7c-2-23.7-10.6-40.5-32.1-51.7c-5.4-2.8-7-12.1-11.7-17.1c-24.7-26.3-48.7-53.4-75.1-77.9
		c-20.4-19-57.1-12.3-74.9,10.8c-3.2,4.2-5.9,8.9-8.7,13.2c-26.8-3.2-26.9-3.3-26.9-28.3c0-49.4,0-98.8,0-150.4
		c17.4,6,33.1,11.2,48.6,16.9c18.6,6.8,35.3,4.4,52.8-5.6c22.6-12.9,46.3-24.6,70.6-33.9c20.7-8,40.6-2.1,58.8,13.6
		c-23.2,14.1-45.4,26.6-66.6,40.6c-17.6,11.6-24.5,29.3-20.4,49.8c3.9,19.7,16.5,33.8,36.1,37.8c10.3,2.1,22.5,0,32.7-3.6
		c16.8-5.9,32.7-14.4,48.8-22c14.7-7,27.8-4.9,39.3,6.5c30.4,30.3,60.7,60.7,91,91.1c10.3,10.3,13.3,21.9,2.2,32.9
		c-11,10.9-22.6,7.9-33.1-2.2c-10.6-10.3-21.4-20.4-32.1-30.6c-1.1,0.9-2.3,1.9-3.4,2.8c6.9,8.1,13.7,16.3,20.8,24.2
		c18.6,20.8,21.4,32.1,10.4,42.6c-11.4,10.8-20.8,8.1-42.7-11.4c-10.9-9.7-22.1-19-33.2-28.5C287.2,326.4,286.2,327.7,285.1,329.1z"
		/>
	<path class="st0" d="M504.4,120.8c0,50.4,0,99.2,0,150.8c-18.9,2.8-38,7.7-57.1,7.7c-9.8,0-21.5-7-29.1-14.2
		c-31.7-29.8-62.2-60.9-93.2-91.4c-16-15.7-26.2-17.4-46.5-7.4c-20.3,10.1-40.2,20.9-60.5,30.9c-18.7,9.2-34.7,5.1-43.3-10.2
		c-8.2-14.5-3.2-28,16.2-39.3c38.1-22.1,76.8-43.4,114.9-65.4c16.1-9.3,30.7-7.7,44.6,3.7c16.1,13.2,32.4,26.3,47.8,40.4
		c11.2,10.4,22.9,13.1,37.6,9.4C458.1,130.3,480.8,125.9,504.4,120.8z"/>
	<path class="st0" d="M152.8,398c-34.9,4-40-5.2-35.1-32.8c-31.7,1.1-37.8-5.4-31.8-31.8c-9.7-2.3-20-3.2-28.8-7.3
		c-3.8-1.8-6-10.1-6.3-15.6c-0.9-18.8,16.8-38.3,34.6-39.1c17.6-0.8,26.7,9.2,29.3,32.2c25.2,4.7,28.3,7.8,32.8,34
		c25.9,4.5,31.1,10.6,31,36.1c25.4,2.6,36,12.5,33.4,31.4c-2.5,18.9-26.8,34.5-46,29.7C150.1,430.8,146.5,420.7,152.8,398z"/>
</g>
</svg>
